<svg width="16" height="16" viewBox="0 0 16 16" fill="none" xmlns="http://www.w3.org/2000/svg">
<path d="M11.292 13.9893C11.2583 14.0304 11.2215 14.074 11.1777 14.1172C10.9345 14.3567 10.5566 14.5955 10.0498 14.8066C9.03837 15.2279 7.60665 15.5 6 15.5C4.39335 15.5 2.96163 15.2279 1.9502 14.8066C1.44338 14.5955 1.06546 14.3567 0.822266 14.1172C0.778132 14.0737 0.739955 14.0307 0.706055 13.9893C0.799591 14.0325 0.893346 14.0747 0.987305 14.1143H0.988281C2.37276 14.6925 4.14788 15 6 15C7.8529 15 9.62734 14.6897 11.0107 14.1152V14.1143C11.1049 14.075 11.1984 14.0325 11.292 13.9893ZM11.292 10.9893C11.2583 11.0304 11.2215 11.074 11.1777 11.1172C10.9345 11.3567 10.5566 11.5955 10.0498 11.8066C9.03837 12.2279 7.60665 12.5 6 12.5C4.39335 12.5 2.96163 12.2279 1.9502 11.8066C1.44338 11.5955 1.06546 11.3567 0.822266 11.1172C0.778132 11.0737 0.739955 11.0307 0.706055 10.9893C0.799591 11.0325 0.893346 11.0747 0.987305 11.1143H0.988281C2.37276 11.6925 4.14788 12 6 12C7.8529 12 9.62734 11.6897 11.0107 11.1152V11.1143C11.1049 11.075 11.1984 11.0325 11.292 10.9893ZM15.293 9.48926C15.2207 9.578 15.1277 9.67237 15.0068 9.76855C14.7564 9.96774 14.4173 10.1569 14 10.3262V9.96777C14.3538 9.8644 14.6931 9.74761 15.0117 9.61426L15.0107 9.61328C15.1051 9.57397 15.1992 9.53263 15.293 9.48926ZM6 5C7.60665 5 9.03837 5.27209 10.0498 5.69336C10.5566 5.90447 10.9345 6.1433 11.1777 6.38281C11.4191 6.62055 11.5 6.82891 11.5 7V7.5C11.5 7.67109 11.4191 7.87945 11.1777 8.11719C10.9345 8.3567 10.5566 8.59553 10.0498 8.80664C9.03837 9.22791 7.60665 9.5 6 9.5C4.39335 9.5 2.96163 9.22791 1.9502 8.80664C1.44338 8.59553 1.06546 8.3567 0.822266 8.11719C0.580917 7.87945 0.5 7.67109 0.5 7.5V7C0.5 6.82891 0.580916 6.62055 0.822266 6.38281C1.06546 6.1433 1.44338 5.90447 1.9502 5.69336C2.96163 5.27209 4.39335 5 6 5ZM15.2949 6.4834C15.2223 6.57292 15.1289 6.6685 15.0068 6.76562C14.7564 6.96479 14.4173 7.15397 14 7.32324V7C14 6.9892 13.9982 6.97848 13.998 6.96777C14.3535 6.86435 14.6936 6.74612 15.0137 6.61035C15.1076 6.5705 15.2012 6.52699 15.2949 6.4834ZM10 0.5C11.6066 0.5 13.0384 0.77209 14.0498 1.19336C14.5566 1.40447 14.9345 1.6433 15.1777 1.88281C15.4191 2.12055 15.5 2.32891 15.5 2.5V3C15.5 3.23506 15.3393 3.5505 14.8369 3.8916C14.3973 4.1901 13.7634 4.45613 12.9805 4.6543C12.9649 4.6383 12.9502 4.62108 12.9346 4.60547L12.9326 4.60352L12.7217 4.4082C12.2162 3.96919 11.615 3.63747 11.0107 3.38867H11.0117C9.62724 2.81043 7.85212 2.50293 6 2.50293C5.49059 2.50293 4.98904 2.52731 4.5 2.57324V2.5C4.5 2.32891 4.58092 2.12055 4.82227 1.88281C5.06546 1.6433 5.44338 1.40447 5.9502 1.19336C6.96163 0.77209 8.39335 0.5 10 0.5Z" stroke="#1F262E"/>
</svg>
