<svg width="20" height="19" viewBox="0 0 20 19" fill="none" xmlns="http://www.w3.org/2000/svg">
<path d="M14.9758 13.2173C16.0509 13.2169 16.8897 13.2232 17.4749 13.2358C17.768 13.2422 17.9943 13.2493 18.1526 13.2583C18.2319 13.2628 18.2892 13.2678 18.3274 13.272H18.3303C18.3349 13.2743 18.3404 13.2768 18.3459 13.2798C18.3683 13.2918 18.3953 13.3071 18.4241 13.3257C18.4832 13.3639 18.5367 13.4044 18.5706 13.4351V13.436C18.6673 13.5246 18.6955 13.5587 18.7131 13.5884C18.7279 13.6132 18.7532 13.6657 18.7747 13.8062C18.8222 14.1176 18.8284 14.6657 18.8284 15.8228C18.8284 16.7168 18.8234 17.2339 18.8069 17.5513C18.7986 17.7093 18.788 17.8013 18.7776 17.8579C18.7727 17.8845 18.7692 17.8995 18.7668 17.9067L18.7629 17.9155C18.6902 18.056 18.6371 18.129 18.5872 18.1792C18.5627 18.2037 18.5334 18.2279 18.4944 18.2544L18.343 18.3413C18.3137 18.3561 18.2808 18.3889 17.8196 18.4067C17.3557 18.4246 16.5376 18.4272 14.9846 18.4272C13.3629 18.4272 12.549 18.4262 12.0989 18.4067C11.8739 18.397 11.7668 18.3835 11.7063 18.3706C11.6617 18.3611 11.6394 18.3514 11.5745 18.3198H11.5735C11.4633 18.2667 11.315 18.1382 11.2483 18.0396L11.2473 18.0386L11.1321 17.8687L11.1116 15.9673C11.1041 15.3184 11.1052 14.7876 11.1145 14.4009C11.1192 14.2072 11.126 14.0538 11.134 13.9419C11.1434 13.8113 11.1518 13.7824 11.1458 13.8022V13.8003C11.2062 13.5981 11.3217 13.451 11.4983 13.3511L11.5784 13.311C11.6272 13.2892 11.6855 13.2568 12.1575 13.2388C12.6299 13.2208 13.448 13.218 14.9758 13.2173ZM4.6145 8.53857C6.23135 8.53857 7.05069 8.53993 7.50708 8.55908C7.73547 8.56867 7.8476 8.58202 7.91235 8.59521C7.96105 8.60514 7.98574 8.61435 8.04614 8.64307L8.0481 8.64404C8.17265 8.70283 8.26174 8.78019 8.35864 8.94189L8.35962 8.94287L8.49243 9.16455L8.51392 13.3228C8.521 14.7673 8.51877 15.8615 8.50903 16.6177C8.50416 16.9962 8.49736 17.2868 8.48853 17.4927C8.4841 17.5959 8.47962 17.6738 8.47485 17.729C8.46899 17.7969 8.46508 17.7989 8.47192 17.7739C8.44885 17.8579 8.37816 17.9904 8.26294 18.1235C8.1463 18.2583 8.03172 18.3393 7.96704 18.3657C7.99451 18.3545 7.97879 18.3657 7.84302 18.3784C7.7224 18.3897 7.54314 18.3996 7.27856 18.4067C6.7505 18.421 5.91792 18.4254 4.6106 18.4243C3.05086 18.4225 2.2336 18.4194 1.77271 18.4009C1.31298 18.3824 1.28966 18.3493 1.26489 18.3364V18.3354L1.177 18.2847C0.985203 18.1579 0.840233 17.965 0.787354 17.7964C0.786286 17.7869 0.784444 17.7709 0.782471 17.7466C0.777787 17.6888 0.77342 17.6062 0.768799 17.4985C0.759599 17.2839 0.750929 16.9825 0.744385 16.5991C0.731303 15.8327 0.724854 14.7502 0.724854 13.4048L0.723877 9.28271L0.872314 8.99854V8.99756C0.940892 8.86582 0.986504 8.8042 1.02271 8.76611C1.0548 8.73241 1.09778 8.69846 1.1897 8.65186L1.19067 8.65088C1.26945 8.61074 1.28636 8.60384 1.32251 8.59521C1.37374 8.58303 1.47076 8.56919 1.69165 8.55908C2.13414 8.53885 2.94845 8.53857 4.6145 8.53857ZM14.9573 0.722168C16.6563 0.724008 17.5241 0.729955 18.0149 0.771973C18.2575 0.792768 18.3683 0.819503 18.426 0.841309C18.4673 0.856906 18.4943 0.873415 18.5618 0.933105C18.5647 0.936135 18.5716 0.943948 18.5823 0.956543C18.5979 0.974966 18.6167 0.998819 18.637 1.02686C18.679 1.0849 18.7182 1.14803 18.7444 1.19775C18.7541 1.21306 18.7898 1.25122 18.8079 1.85107C18.8261 2.45884 18.8284 3.55891 18.8284 5.6626C18.8284 7.4397 18.8228 8.55299 18.8079 9.24463C18.8004 9.59091 18.7906 9.82313 18.7786 9.97705C18.7708 10.076 18.7626 10.1244 18.76 10.1411C18.7298 10.2012 18.6537 10.3057 18.5256 10.4136C18.3902 10.5276 18.2563 10.5978 18.1731 10.6206C18.1961 10.6144 18.1952 10.6172 18.1399 10.6226C18.0952 10.6269 18.0325 10.6318 17.9504 10.6362C17.7862 10.6451 17.5593 10.6524 17.2747 10.6587C16.7061 10.6712 15.9188 10.678 14.9631 10.6772C13.3414 10.6758 12.5251 10.6708 12.053 10.6284C11.8231 10.6078 11.7079 10.5804 11.636 10.5542C11.5706 10.5304 11.518 10.5002 11.4143 10.4263L11.4133 10.4253L11.3967 10.4077C11.3793 10.3896 11.3572 10.365 11.3333 10.3345C11.284 10.2716 11.2382 10.2012 11.2083 10.144L11.0969 9.93018V1.38916L11.2092 1.17822L11.2102 1.17725C11.2569 1.0889 11.2901 1.04749 11.3245 1.01611C11.3639 0.980148 11.4287 0.935538 11.5647 0.867676L11.8606 0.719238L14.9573 0.722168ZM4.70142 0.721191C6.48685 0.721931 7.32916 0.723802 7.78833 0.781738C8.00647 0.809278 8.08129 0.844433 8.11353 0.86377C8.15062 0.886025 8.18333 0.915264 8.29712 1.04736V1.04834C8.36112 1.12309 8.39123 1.17027 8.41333 1.22119C8.43704 1.27585 8.46288 1.36208 8.48267 1.52393C8.52433 1.86472 8.52833 2.42345 8.51587 3.48975C8.50415 4.46433 8.49793 4.92545 8.47388 5.18701C8.46253 5.31023 8.44902 5.35993 8.44067 5.38428C8.43236 5.40844 8.42153 5.43023 8.37524 5.50928V5.51025C8.32477 5.59683 8.23539 5.6949 8.13599 5.77197L8.03442 5.84033L7.81274 5.96729L4.73657 5.98096C3.85646 5.98497 3.03404 5.98088 2.41919 5.97217C2.11156 5.96781 1.85807 5.96213 1.67603 5.95557C1.58453 5.95227 1.51435 5.94912 1.46606 5.9458C1.45598 5.94511 1.44762 5.94345 1.44067 5.94287C1.18168 5.85882 1.01122 5.72487 0.899658 5.54053L0.85376 5.45557C0.812074 5.36769 0.79485 5.3278 0.782471 5.28467C0.770306 5.24224 0.758121 5.1784 0.748291 5.05225C0.727452 4.78471 0.72583 4.33242 0.72583 3.39795L0.730713 2.59814C0.734358 2.35546 0.739364 2.13846 0.746338 1.95264C0.75333 1.76644 0.762449 1.61502 0.771729 1.50244C0.782308 1.37411 0.790988 1.3349 0.78833 1.34424V1.34326C0.809366 1.26891 0.883979 1.14036 1.01685 1.01025C1.14898 0.880891 1.28204 0.805862 1.36353 0.783691H1.3645C1.37471 0.782817 1.43856 0.774183 1.59302 0.765137C1.75557 0.755621 1.98057 0.747332 2.2688 0.740723C2.84466 0.727521 3.65849 0.720827 4.70142 0.721191Z" stroke="#1F262E"/>

</svg>
