<svg width="12" height="16" viewBox="0 0 12 16" fill="none" xmlns="http://www.w3.org/2000/svg">
<path d="M2 0.5H6.67188C7.07144 0.5 7.45303 0.657389 7.7334 0.9375L11.0615 4.26855L11.0625 4.26953C11.3426 4.54987 11.4999 4.93151 11.5 5.33105V14C11.5 14.827 10.827 15.5 10 15.5H2C1.17302 15.5 0.5 14.827 0.5 14V2C0.5 1.17302 1.17302 0.5 2 0.5ZM3.75 10.5C3.05823 10.5 2.5 11.0582 2.5 11.75C2.5 12.4418 3.05823 13 3.75 13H8.25C8.94177 13 9.5 12.4418 9.5 11.75C9.5 11.0582 8.94177 10.5 8.25 10.5H3.75ZM3.75 7.5C3.05823 7.5 2.5 8.05823 2.5 8.75C2.5 9.44177 3.05823 10 3.75 10H8.25C8.94177 10 9.5 9.44177 9.5 8.75C9.5 8.05823 8.94177 7.5 8.25 7.5H3.75ZM6 4.75C6 5.44177 6.55823 6 7.25 6H11.3789L6 0.621094V4.75Z" stroke="#1F262E"/>
</svg>
