<svg width="18" height="17" viewBox="0 0 18 17" fill="none" xmlns="http://www.w3.org/2000/svg">
<path d="M6.24414 10.5H11C11.277 10.5 11.5 10.723 11.5 11C11.5 11.277 11.277 11.5 11 11.5H8.75C8.05823 11.5 7.5 12.0582 7.5 12.75C7.5 13.4418 8.05823 14 8.75 14H12.4326L12.5654 13.9023L16.3086 11.1465C16.6424 10.9008 17.1108 10.972 17.3564 11.3057C17.5868 11.6186 17.5387 12.0496 17.2568 12.3047L17.1973 12.3535L13.2412 15.2686C12.5956 15.7431 11.8151 16 11.0156 16H1C0.723017 16 0.5 15.777 0.5 15.5V13.5C0.5 13.223 0.723017 13 1 13H2.29102L2.4375 12.8535L3.76855 11.5254H3.76953C4.42578 10.8692 5.31752 10.5 6.24414 10.5ZM9 0.5C9.13948 0.5 9.25 0.610518 9.25 0.75V1.625H10.25C10.4582 1.625 10.625 1.79177 10.625 2C10.625 2.20823 10.4582 2.375 10.25 2.375H10.249L8.19336 2.37793C7.77357 2.37813 7.42125 2.69578 7.37891 3.1123L7.375 3.19727L7.38867 3.34863C7.45326 3.69272 7.73404 3.96687 8.09473 4.01074V4.01172L10.001 4.24902C10.7844 4.34607 11.375 5.0148 11.375 5.80664C11.3748 6.67131 10.6734 7.37479 9.80664 7.375H9.25V8.25C9.25 8.38948 9.13948 8.5 9 8.5C8.86052 8.5 8.75 8.38948 8.75 8.25V7.375H7.5C7.29177 7.375 7.125 7.20823 7.125 7C7.125 6.79177 7.29177 6.625 7.5 6.625H7.50098L9.80664 6.62207C10.2544 6.62186 10.625 6.26006 10.625 5.80273C10.6248 5.39042 10.3171 5.03794 9.9043 4.98828H9.90527L7.99902 4.75098C7.21556 4.65393 6.625 3.9852 6.625 3.19336C6.62521 2.32869 7.32655 1.62521 8.19336 1.625H8.75V0.75C8.75 0.610518 8.86052 0.5 9 0.5Z" stroke="#1F262E"/>
</svg>
