<svg width="20" height="19" viewBox="0 0 20 19" fill="none" xmlns="http://www.w3.org/2000/svg">
<g clip-path="url(#clip0_1105_300)">
<path d="M8.80176 0.591797C8.94165 0.470144 9.1424 0.470023 9.28223 0.591797L10.7549 1.87598L11.083 2.16211L11.4121 1.87598L12.8848 0.591797L12.8857 0.59082C12.9961 0.494455 13.1489 0.473735 13.2783 0.53418C13.4097 0.595703 13.4998 0.732809 13.5 0.889648V18.1104C13.4998 18.2672 13.4097 18.4043 13.2783 18.4658C13.1489 18.5263 12.9961 18.5055 12.8857 18.4092L12.8848 18.4082L11.4121 17.124L11.083 16.8379L10.7549 17.124L9.28223 18.4082C9.1424 18.53 8.94165 18.5299 8.80176 18.4082L7.32812 17.124L7 16.8379L6.67188 17.124L5.19824 18.4082C5.05729 18.5308 4.85419 18.5286 4.71973 18.4102L4.71777 18.4082L3.24512 17.124L2.91699 16.8379L2.58789 17.124L1.11523 18.4082L1.11426 18.4092C1.00386 18.5055 0.851098 18.5263 0.72168 18.4658C0.590276 18.4043 0.500158 18.2672 0.5 18.1104V0.889648C0.500158 0.732808 0.590276 0.595702 0.72168 0.53418C0.851098 0.473735 1.00385 0.494455 1.11426 0.59082L1.11523 0.591797L2.58789 1.87598L2.91699 2.16211L3.24512 1.87598L4.71777 0.591797C4.85866 0.4691 5.06176 0.471535 5.19629 0.589844L5.19824 0.591797L6.67188 1.87598L7 2.16211L7.32812 1.87598L8.80176 0.591797ZM3.79199 11.6719C3.0227 11.6719 2.41712 12.3013 2.41699 13.0625C2.41699 13.8238 3.02262 14.4531 3.79199 14.4531H10.208C10.9774 14.4531 11.583 13.8238 11.583 13.0625C11.5829 12.3013 10.9773 11.6719 10.208 11.6719H3.79199ZM3.79199 8.10938C3.02262 8.10938 2.41699 8.73868 2.41699 9.5C2.41699 10.2613 3.02262 10.8906 3.79199 10.8906H10.208C10.9774 10.8906 11.583 10.2613 11.583 9.5C11.583 8.73868 10.9774 8.10938 10.208 8.10938H3.79199ZM3.79199 4.54688C3.02262 4.54688 2.41699 5.17618 2.41699 5.9375C2.41712 6.69871 3.0227 7.32812 3.79199 7.32812H10.208C10.9773 7.32812 11.5829 6.69871 11.583 5.9375C11.583 5.17618 10.9774 4.54688 10.208 4.54688H3.79199Z" stroke="#1F262E"/>
</g>
<defs>
<clipPath id="clip0_1105_300">
<rect width="14" height="19" fill="white"/>
</clipPath>
</defs>
</svg>
