<svg width="18" height="17" viewBox="0 0 18 17" fill="none" xmlns="http://www.w3.org/2000/svg">
<path d="M14.4355 12.3525L11.0742 15.7148C10.8922 15.8968 10.6652 16.0299 10.416 16.0996L10.3076 16.125L8.50781 16.4844L8.68457 15.6006L8.6875 15.6035L8.87109 14.6895C8.92987 14.3979 9.07313 14.13 9.28125 13.9219L12.6426 10.5596L14.4355 12.3525ZM2 0.5H6.67188C7.07144 0.5 7.45303 0.657389 7.7334 0.9375L11.0586 4.26855V4.26953C11.339 4.5499 11.497 4.93133 11.4971 5.33105V8.1709L7.66504 12.0029H6.92773L6.53223 10.6846C6.32181 9.98187 5.6762 9.50293 4.94336 9.50293C4.43934 9.50305 3.96442 9.73101 3.65039 10.125L1.77344 12.4678C1.34014 13.0055 1.42792 13.7966 1.9668 14.2256C2.50049 14.6504 3.28928 14.5713 3.7207 14.0273L3.72168 14.0283L4.59668 12.9336L4.79883 13.6055C4.95688 14.1398 5.44867 14.4971 5.99707 14.4971H6.3584L6.1582 15.4971H2C1.17308 15.4971 0.500106 14.824 0.5 13.9971V2C0.5 1.17302 1.17302 0.5 2 0.5ZM14.6035 8.60059C15.0989 8.10522 15.9011 8.10522 16.3965 8.60059C16.8917 9.09596 16.8918 9.89822 16.3965 10.3936L15.8496 10.9395L14.0566 9.14648L14.6035 8.60059ZM6 4.75C6 5.44177 6.55823 6 7.25 6H11.3789L6 0.621094V4.75Z" stroke="#1F262E"/>
</svg>
