<svg width="16" height="17" viewBox="0 0 16 17" fill="none" xmlns="http://www.w3.org/2000/svg">
<path d="M7.02734 0.5H8.89648C9.13483 0.5 9.33851 0.668269 9.38477 0.896484V0.898438L9.83789 3.08594L9.8916 3.3418L10.1318 3.44434C10.5342 3.61554 10.9113 3.83589 11.2539 4.0957L11.4639 4.25391L11.7139 4.17188L13.832 3.46875L13.833 3.46777C14.029 3.40256 14.2421 3.46597 14.3721 3.62109L14.4229 3.69336L15.3574 5.3125C15.4762 5.51941 15.4341 5.77763 15.2559 5.93555H15.2549L13.5889 7.41699L13.3936 7.59082L13.4248 7.85059C13.4501 8.05895 13.4619 8.27646 13.4619 8.5C13.4619 8.71906 13.4483 8.93817 13.4248 9.15527L13.3965 9.41211L13.5889 9.58301L15.2578 11.0674L15.2588 11.0684C15.4348 11.2245 15.4773 11.4844 15.3604 11.6904L14.4268 13.3086C14.3067 13.5155 14.058 13.6092 13.8359 13.5352H13.835L11.7168 12.832L11.4678 12.749L11.2588 12.9062C10.9134 13.166 10.5344 13.3847 10.1309 13.5605L9.89355 13.6641L9.84082 13.918L9.3916 16.1016C9.34292 16.335 9.13741 16.5 8.90234 16.5H7.03418C6.79583 16.5 6.59216 16.3317 6.5459 16.1035V16.1025L6.0957 13.918L6.04297 13.6611L5.80176 13.5586L5.50586 13.4219C5.21494 13.2758 4.93954 13.1024 4.67871 12.9062L4.46973 12.749L4.2207 12.8311L2.09277 13.5342L2.0918 13.5352C1.89553 13.6006 1.68175 13.5373 1.55176 13.3818L1.50195 13.3096L0.567383 11.6904C0.448592 11.4835 0.490751 11.2263 0.668945 11.0684L0.669922 11.0674L2.33789 9.58301L2.53418 9.40918L2.50195 9.14941C2.47661 8.94105 2.46484 8.72354 2.46484 8.5C2.46484 8.28093 2.47947 8.06184 2.50293 7.84473L2.53027 7.58789L2.33789 7.41699L0.669922 5.93262L0.668945 5.93164L0.608398 5.86914C0.483893 5.7119 0.465 5.4899 0.567383 5.30957L1.50195 3.69043C1.60611 3.50952 1.80781 3.41491 2.00684 3.44434L2.0918 3.46484L4.21094 4.16797L4.45996 4.25098L4.66895 4.09375C5.01422 3.83408 5.39241 3.61528 5.7959 3.43945L6.0332 3.33594L6.08594 3.08301L6.53906 0.898438L6.54004 0.896484C6.58052 0.696763 6.74113 0.543053 6.94043 0.507812L7.02734 0.5ZM7.94141 5.5C6.28503 5.50749 4.94562 6.85332 4.95312 8.51172C4.96066 10.1681 6.30647 11.5075 7.96484 11.5C9.62104 11.4923 10.9606 10.1465 10.9531 8.48828C10.9456 6.83202 9.59967 5.49262 7.94141 5.5Z" stroke="#1F262E"/>
</svg>
