<svg width="18" height="16" viewBox="0 0 18 16" fill="none" xmlns="http://www.w3.org/2000/svg">
<path d="M5.5 9C8.26136 9 10.5 11.2386 10.5 14V14.1875C10.5 14.6364 10.1364 15 9.6875 15H1.3125C0.863642 15 0.5 14.6364 0.5 14.1875V14C0.5 11.2386 2.73864 9 5.5 9ZM13.5 9.5C15.7082 9.5 17.5 11.2918 17.5 13.5V14.2002C17.4999 14.6426 17.1426 14.9999 16.7002 15H12.8984C12.9642 14.7402 13 14.468 13 14.1875V14C13 12.4827 12.5487 11.0709 11.7764 9.8916C12.2991 9.64135 12.8837 9.5 13.5 9.5ZM13.5 2C14.8801 2 16 3.11989 16 4.5C16 5.88011 14.8801 7 13.5 7C12.1199 7 11 5.88011 11 4.5C11 3.11989 12.1199 2 13.5 2ZM5.5 0.5C7.15823 0.5 8.5 1.84177 8.5 3.5C8.5 5.15823 7.15823 6.5 5.5 6.5C3.84177 6.5 2.5 5.15823 2.5 3.5C2.5 1.84177 3.84177 0.5 5.5 0.5Z" stroke="#1F262E"/>
</svg>
